name mfd
datacolumns  50
datarows  7
range   0.00000000 0.03000000
cursor 1.0 1.0 0.0
keys m_key
wrap
enforce_loops no
enforce_constraints no
calc_derivatives -1.000000
event_color 0.000000 0.000000 0.000000
endheader

            time      gaitcycle_l        pelvis_tz        pelvis_tx        pelvis_ty      pelvis_tilt      pelvis_list       pelvis_rot       lumbar_ext   lumbar_latbend       lumbar_rot         neck_ext     neck_latbend         neck_rot        arm_add_r       arm_flex_r        arm_rot_r     elbow_flex_r        pro_sup_r     wrist_flex_r        arm_add_l       arm_flex_l        arm_rot_l     elbow_flex_l        pro_sup_l     wrist_flex_l       hip_flex_r        hip_add_r        hip_rot_r        knee_tz_r        knee_tx_r        knee_ty_r      knee_flex_r       knee_add_r       knee_rot_r          pf_tz_r          pf_tx_r          pf_ty_r        pf_flex_r         pf_rot_r        pf_tilt_r       hip_flex_l        hip_add_l        hip_rot_l      knee_flex_l     ankle_flex_l     subt_angle_l      mtp_angle_l     ankle_flex_r     subt_angle_r 
      0.00000000       0.00000000      -0.24479299      -1.63697528       0.90784414      -5.12132086       2.50230539      -5.35223387      -6.14560396      -4.78221990      -1.92730348       0.00000000       0.00000000       0.00000000     -11.72109950       9.33208738     -23.33756921      19.81320586      70.00000000       0.00000000     -13.70878073      12.79325975     -31.52351470      23.72886953      70.00000000       0.00000000      24.02717864      -6.74852064      -8.00156693      -0.00217867       0.00224610      -0.00143592      55.00455256       2.99680462      -4.72605353       0.00558949       0.02856735      -0.02522809      43.08640169       1.85884770      -0.47900740       9.01782291      -3.62721139       6.94642762      11.70120178      10.09690983       0.00100000       0.00000000       7.18472599      -0.00100000 
      0.00500000       0.00000000      -0.24432677      -1.63095217       0.90907854      -5.08975587       2.24253268      -5.27245900      -6.20935341      -4.46172774      -2.08180647       0.00000000       0.00000000       0.00000000     -11.74112975       9.18880717     -23.77815038      19.58712724      70.00000000       0.00000000     -13.87876787      13.42665878     -30.70514913      24.56725844      70.00000000       0.00000000      24.35271392      -6.13755597      -7.87960550      -0.00220359       0.00225950      -0.00125598      53.55886111       2.92329207      -4.61247894       0.00554798       0.02942022      -0.02486294      41.76804234       1.80690836      -0.48756867       8.16422186      -3.38927890       7.14990703      10.93654088      10.13872931       0.00100000       0.00000000       7.16588419      -0.00100000 
      0.01000000       0.00000000      -0.24386694      -1.62492484       0.91015702      -5.06949070       1.99761301      -5.18630816      -6.26334204      -4.15717980      -2.23984255       0.00000000       0.00000000       0.00000000     -11.76455314       9.04257636     -24.20905613      19.37512500      70.00000000       0.00000000     -14.06378260      14.04927316     -29.89968898      25.42274624      70.00000000       0.00000000      24.67481299      -5.55575685      -7.74964244      -0.00222602       0.00227532      -0.00108080      52.08981334       2.84794509      -4.49101516       0.00550123       0.03028350      -0.02446068      40.44058343       1.75212873      -0.50290298       7.34221964      -3.16777717       7.32657823      10.20518152      10.18778616       0.00100000       0.00000000       7.15183340      -0.00100000 
      0.01500000       0.00000000      -0.24341327      -1.61889326       0.91108032      -5.06046871       1.76771048      -5.09394411      -6.30762389      -3.86864172      -2.40155720       0.00000000       0.00000000       0.00000000     -11.79114812       8.89364301     -24.63016957      19.17644297      70.00000000       0.00000000     -14.26398508      14.66108322     -29.10759994      26.29569465      70.00000000       0.00000000      24.99274083      -5.00326138      -7.61132441      -0.00224566       0.00229376      -0.00091054      50.59407814       2.77059634      -4.36195741       0.00544930       0.03115783      -0.02401884      39.10214879       1.69455013      -0.52525589       6.55087012      -2.96268822       7.47298429       9.50606281      10.24395223       0.00100000       0.00000000       7.14268141      -0.00100000 
      0.02000000       0.00000000      -0.24296576      -1.61285741       0.91184921      -5.06261167       1.55296098      -4.99548603      -6.34228489      -3.59614186      -2.56708532       0.00000000       0.00000000       0.00000000     -11.82075223       8.74224356     -25.04138040      18.99032339      70.00000000       0.00000000     -14.47951055      15.26210663     -28.32940931      27.18646423      70.00000000       0.00000000      25.30559406      -4.48015352      -7.46408179      -0.00226217       0.00231505      -0.00074543      49.06826180       2.69107248      -4.22563791       0.00539223       0.03204367      -0.02353464      37.75102269       1.63422480      -0.55492898       5.78934325      -2.77386994       7.58676105       8.83834502      10.30733113       0.00100000       0.00000000       7.13823823      -0.00100000 
      0.02500000       0.00000000      -0.24252483      -1.60681728       0.91246459      -5.07579118       1.35347571      -4.89099221      -6.36747466      -3.33966492      -2.73655883       0.00000000       0.00000000       0.00000000     -11.85329013       8.58860662     -25.44254035      18.81600179      70.00000000       0.00000000     -14.71042926      15.85243643     -27.56574271      28.09533662      70.00000000       0.00000000      25.61230790      -3.98653423      -7.30714248      -0.00227515       0.00233934      -0.00058580      47.50903708       2.60919583      -4.08246583       0.00533012       0.03294118      -0.02300491      36.38622465       1.57125830      -0.59231034       5.05691113      -2.60109656       7.66662005       8.20144231      10.37829356       0.00100000       0.00000000       7.13792301      -0.00100000 
      0.03000000       0.00000000      -0.24209139      -1.60077289       0.91292757      -5.09981183       1.16934788      -4.78042755      -6.38342817      -3.09915101      -2.91014361       0.00000000       0.00000000       0.00000000     -11.88878604       8.43300263     -25.83346264      18.65261087      70.00000000       0.00000000     -14.95670834      16.43226541     -26.81735402      29.02246635      70.00000000       0.00000000      25.91165686      -3.52258576      -7.13959515      -0.00228415       0.00236673      -0.00043211      45.91321390       2.52478957      -3.93295980       0.00526305       0.03385011      -0.02242615      35.00755324       1.50581798      -0.63786715       4.35295865      -2.44409644       7.71227025       7.59506771      10.45739900       0.00100000       0.00000000       7.14088468      -0.00100000 
